<svg width="21" height="25" viewBox="0 0 21 25" fill="none" xmlns="http://www.w3.org/2000/svg">
<g clip-path="url(#clip0_509_4973)">
<path d="M0.583405 15.8542H2.9166C3.23874 15.8542 3.5 16.1526 3.5 16.5208V23.1875C3.5 23.5557 3.23874 23.8542 2.9166 23.8542H0.583405C0.261261 23.8542 0 23.5557 0 23.1875V16.5208C0 16.1526 0.261261 15.8542 0.583405 15.8542Z" fill="white"/>
<path d="M6.4162 10.5208H8.7496C9.07175 10.5208 9.33301 10.8193 9.33301 11.1875V23.1875C9.33301 23.5557 9.07175 23.8542 8.7496 23.8542H6.4162C6.09406 23.8542 5.83301 23.5557 5.83301 23.1875V11.1875C5.83301 10.8193 6.09406 10.5208 6.4162 10.5208Z" fill="white"/>
<path d="M12.2504 13.1875H14.5838C14.9059 13.1875 15.167 13.4861 15.167 13.8542V23.1875C15.167 23.5557 14.9059 23.8542 14.5838 23.8542H12.2504C11.9283 23.8542 11.667 23.5557 11.667 23.1875V13.8542C11.667 13.4861 11.9283 13.1875 12.2504 13.1875Z" fill="white"/>
<path d="M18.0834 9.1875H20.4166C20.7387 9.1875 21 9.48608 21 9.85425V23.1875C21 23.5557 20.7387 23.8542 20.4166 23.8542H18.0834C17.7613 23.8542 17.5 23.5557 17.5 23.1875V9.85425C17.5 9.48608 17.7613 9.1875 18.0834 9.1875Z" fill="white"/>
<path d="M19.25 1.1875C18.284 1.18872 17.5011 2.0835 17.5 3.1875C17.5023 3.40527 17.5361 3.62109 17.6 3.82617L14.6797 5.81006C14.2965 5.34546 13.7409 5.12036 13.1872 5.20508C12.6332 5.28979 12.1492 5.67407 11.8862 6.23755L9.31055 4.77954C9.32315 4.69385 9.33063 4.60742 9.3334 4.52075C9.33469 3.71118 8.90894 2.98071 8.25482 2.66992C7.60071 2.35938 6.84726 2.53003 6.34631 3.10229C5.84515 3.67456 5.6954 4.5354 5.96692 5.2832L2.62585 8.13281C2.36096 7.95239 2.05847 7.8562 1.75 7.85425C0.783569 7.85425 0 8.74951 0 9.85425C0 10.9587 0.783569 11.8542 1.75 11.8542C2.71643 11.8542 3.5 10.9587 3.5 9.85425C3.4985 9.61353 3.45877 9.37549 3.38272 9.15112L6.75711 6.27295C7.41721 6.6936 8.24051 6.57031 8.78333 5.96924L11.7123 7.6272C11.9076 8.62109 12.726 9.28809 13.6118 9.17529C14.4977 9.0625 15.1677 8.2063 15.1666 7.1875C15.1666 7.13672 15.1568 7.08887 15.1536 7.03906L18.3297 4.8811C18.6051 5.08008 18.924 5.18628 19.25 5.1875C20.2164 5.1875 21 4.29199 21 3.1875C21 2.08301 20.2164 1.1875 19.25 1.1875Z" fill="white"/>
</g>
<defs>
<clipPath id="clip0_509_4973">
<rect width="21" height="24" fill="white" transform="translate(0 0.5)"/>
</clipPath>
</defs>
</svg>
