<svg width="64" height="64" viewBox="0 0 64 64" fill="none" xmlns="http://www.w3.org/2000/svg">
<path opacity="0.4" d="M18.0267 58.6667H45.9734C53.3334 58.6667 56.2667 54.16 56.6134 48.6667L58 26.64C58.3734 20.88 53.7867 16 48 16C46.3734 16 44.88 15.0667 44.1334 13.6267L42.2134 9.76C40.9867 7.33334 37.7867 5.33334 35.0667 5.33334H28.96C26.2134 5.33334 23.0134 7.33334 21.7867 9.76L19.8667 13.6267C19.12 15.0667 17.6267 16 16 16C10.2134 16 5.62671 20.88 6.00004 26.64L7.38671 48.6667C7.70671 54.16 10.6667 58.6667 18.0267 58.6667Z" fill="#7A1AD6"/>
<path d="M36 23.3333H28C26.9067 23.3333 26 22.4267 26 21.3333C26 20.24 26.9067 19.3333 28 19.3333H36C37.0933 19.3333 38 20.24 38 21.3333C38 22.4267 37.0933 23.3333 36 23.3333Z" fill="#7A1AD6"/>
<path d="M32 48.3467C36.978 48.3467 41.0134 44.3113 41.0134 39.3333C41.0134 34.3554 36.978 30.32 32 30.32C27.0221 30.32 22.9867 34.3554 22.9867 39.3333C22.9867 44.3113 27.0221 48.3467 32 48.3467Z" fill="#7A1AD6"/>
</svg>
