<svg width="20" height="20" viewBox="0 0 20 20" fill="none" xmlns="http://www.w3.org/2000/svg">
<path d="M12.4998 18.9583H7.49984C2.97484 18.9583 1.0415 17.025 1.0415 12.5V7.5C1.0415 2.975 2.97484 1.04167 7.49984 1.04167H12.4998C17.0248 1.04167 18.9582 2.975 18.9582 7.5V12.5C18.9582 17.025 17.0248 18.9583 12.4998 18.9583ZM7.49984 2.29167C3.65817 2.29167 2.2915 3.65833 2.2915 7.5V12.5C2.2915 16.3417 3.65817 17.7083 7.49984 17.7083H12.4998C16.3415 17.7083 17.7082 16.3417 17.7082 12.5V7.5C17.7082 3.65833 16.3415 2.29167 12.4998 2.29167H7.49984Z" fill="#7A1AD6"/>
<path d="M12.9167 16.0417C11.65 16.0417 10.625 15.0167 10.625 13.75V6.25C10.625 4.98333 11.65 3.95833 12.9167 3.95833C14.1833 3.95833 15.2083 4.98333 15.2083 6.25V13.75C15.2083 15.0167 14.1833 16.0417 12.9167 16.0417ZM12.9167 5.20833C12.3417 5.20833 11.875 5.675 11.875 6.25V13.75C11.875 14.325 12.3417 14.7917 12.9167 14.7917C13.4917 14.7917 13.9583 14.325 13.9583 13.75V6.25C13.9583 5.675 13.4917 5.20833 12.9167 5.20833Z" fill="#7A1AD6"/>
<path d="M7.08317 16.0417C5.8165 16.0417 4.7915 15.0167 4.7915 13.75V10.8333C4.7915 9.56667 5.8165 8.54167 7.08317 8.54167C8.34984 8.54167 9.37484 9.56667 9.37484 10.8333V13.75C9.37484 15.0167 8.34984 16.0417 7.08317 16.0417ZM7.08317 9.79167C6.50817 9.79167 6.0415 10.2583 6.0415 10.8333V13.75C6.0415 14.325 6.50817 14.7917 7.08317 14.7917C7.65817 14.7917 8.12484 14.325 8.12484 13.75V10.8333C8.12484 10.2583 7.65817 9.79167 7.08317 9.79167Z" fill="#7A1AD6"/>
</svg>
