<svg width="25" height="24" viewBox="0 0 25 24" fill="none" xmlns="http://www.w3.org/2000/svg">
<path d="M12.75 22C18.2728 22 22.75 17.5228 22.75 12C22.75 6.47715 18.2728 2 12.75 2C7.22715 2 2.75 6.47715 2.75 12C2.75 17.5228 7.22715 22 12.75 22Z" fill="#FF3939" fill-opacity="0.6"/>
<path d="M13.8099 12L16.1099 9.7C16.3999 9.41 16.3999 8.93 16.1099 8.64C15.8199 8.35 15.3399 8.35 15.0499 8.64L12.7499 10.94L10.4499 8.64C10.1599 8.35 9.67986 8.35 9.38986 8.64C9.09986 8.93 9.09986 9.41 9.38986 9.7L11.6899 12L9.38986 14.3C9.09986 14.59 9.09986 15.07 9.38986 15.36C9.53986 15.51 9.72986 15.58 9.91986 15.58C10.1099 15.58 10.2999 15.51 10.4499 15.36L12.7499 13.06L15.0499 15.36C15.1999 15.51 15.3899 15.58 15.5799 15.58C15.7699 15.58 15.9599 15.51 16.1099 15.36C16.3999 15.07 16.3999 14.59 16.1099 14.3L13.8099 12Z" fill="white"/>
</svg>
