<svg width="20" height="20" viewBox="0 0 20 20" fill="none" xmlns="http://www.w3.org/2000/svg">
<path d="M5.83317 6.66667H3.33317C2.4165 6.66667 1.6665 5.91667 1.6665 5V3.33333C1.6665 2.41667 2.4165 1.66667 3.33317 1.66667H5.83317C6.74984 1.66667 7.49984 2.41667 7.49984 3.33333V5C7.49984 5.91667 6.74984 6.66667 5.83317 6.66667Z" stroke="#7A1AD6" stroke-width="1.5" stroke-linecap="round" stroke-linejoin="round"/>
<path d="M17.3335 5.83333H14.3335C13.7835 5.83333 13.3335 5.38332 13.3335 4.83332V3.50001C13.3335 2.95001 13.7835 2.5 14.3335 2.5H17.3335C17.8835 2.5 18.3335 2.95001 18.3335 3.50001V4.83332C18.3335 5.38332 17.8835 5.83333 17.3335 5.83333Z" stroke="#7A1AD6" stroke-width="1.5" stroke-linecap="round" stroke-linejoin="round"/>
<path d="M17.3335 12.0833H14.3335C13.7835 12.0833 13.3335 11.6333 13.3335 11.0833V9.75001C13.3335 9.20001 13.7835 8.75 14.3335 8.75H17.3335C17.8835 8.75 18.3335 9.20001 18.3335 9.75001V11.0833C18.3335 11.6333 17.8835 12.0833 17.3335 12.0833Z" stroke="#7A1AD6" stroke-width="1.5" stroke-linecap="round" stroke-linejoin="round"/>
<path d="M7.5 4.16667H13.3333" stroke="#7A1AD6" stroke-width="1.5" stroke-miterlimit="10" stroke-linecap="round" stroke-linejoin="round"/>
<path d="M10.4165 4.16667V15C10.4165 15.9167 11.1665 16.6667 12.0832 16.6667H13.3332" fill="white"/>
<path d="M10.4165 4.16667V15C10.4165 15.9167 11.1665 16.6667 12.0832 16.6667H13.3332" stroke="#7A1AD6" stroke-width="1.5" stroke-miterlimit="10" stroke-linecap="round" stroke-linejoin="round"/>
<path d="M10.4165 10.4167H13.3332" stroke="#7A1AD6" stroke-width="1.5" stroke-miterlimit="10" stroke-linecap="round" stroke-linejoin="round"/>
<path d="M17.3335 18.3333H14.3335C13.7835 18.3333 13.3335 17.8833 13.3335 17.3333V16C13.3335 15.45 13.7835 15 14.3335 15H17.3335C17.8835 15 18.3335 15.45 18.3335 16V17.3333C18.3335 17.8833 17.8835 18.3333 17.3335 18.3333Z" stroke="#7A1AD6" stroke-width="1.5" stroke-linecap="round" stroke-linejoin="round"/>
</svg>
