<svg width="20" height="20" viewBox="0 0 20 20" fill="none" xmlns="http://www.w3.org/2000/svg">
<path d="M9.99984 18.9583C5.05817 18.9583 1.0415 14.9417 1.0415 10C1.0415 8.43333 1.44983 6.89168 2.23316 5.53335C2.40816 5.23335 2.78318 5.13332 3.08318 5.29999L10.3082 9.45C10.6082 9.625 10.7082 9.99999 10.5415 10.3C10.3665 10.6 9.99151 10.7 9.69151 10.5333L3.02484 6.70832C2.54151 7.73332 2.2915 8.84999 2.2915 9.99166C2.2915 14.2417 5.74984 17.7 9.99984 17.7C14.2498 17.7 17.7082 14.2417 17.7082 9.99166C17.7082 5.74166 14.2498 2.28333 9.99984 2.28333C8.3165 2.28333 6.71651 2.81666 5.37485 3.825C5.09985 4.03333 4.70817 3.975 4.49983 3.7C4.2915 3.425 4.34983 3.03335 4.62483 2.82501C6.18316 1.65835 8.0415 1.03333 9.99984 1.03333C14.9415 1.03333 18.9582 5.04999 18.9582 9.99166C18.9582 14.9333 14.9415 18.9583 9.99984 18.9583Z" fill="#7A1AD6"/>
</svg>
