<svg width="143" height="144" viewBox="0 0 143 144" fill="none" xmlns="http://www.w3.org/2000/svg">
<path d="M71.5 12.4167C38.6696 12.4167 11.9167 39.1696 11.9167 72C11.9167 104.83 38.6696 131.583 71.5 131.583C104.33 131.583 131.083 104.83 131.083 72C131.083 39.1696 104.33 12.4167 71.5 12.4167ZM67.0313 48.1667C67.0313 45.7237 69.0571 43.6979 71.5 43.6979C73.9429 43.6979 75.9688 45.7237 75.9688 48.1667V77.9583C75.9688 80.4012 73.9429 82.4271 71.5 82.4271C69.0571 82.4271 67.0313 80.4012 67.0313 77.9583V48.1667ZM76.9817 98.0975C76.6838 98.8721 76.2667 99.4679 75.7304 100.064C75.1346 100.6 74.4792 101.017 73.7642 101.315C73.0492 101.613 72.2746 101.792 71.5 101.792C70.7254 101.792 69.9508 101.613 69.2358 101.315C68.5208 101.017 67.8654 100.6 67.2696 100.064C66.7333 99.4679 66.3163 98.8721 66.0183 98.0975C65.7204 97.3825 65.5417 96.6079 65.5417 95.8333C65.5417 95.0587 65.7204 94.2842 66.0183 93.5692C66.3163 92.8542 66.7333 92.1987 67.2696 91.6029C67.8654 91.0667 68.5208 90.6496 69.2358 90.3517C70.6658 89.7558 72.3342 89.7558 73.7642 90.3517C74.4792 90.6496 75.1346 91.0667 75.7304 91.6029C76.2667 92.1987 76.6838 92.8542 76.9817 93.5692C77.2796 94.2842 77.4583 95.0587 77.4583 95.8333C77.4583 96.6079 77.2796 97.3825 76.9817 98.0975Z" fill="#FF4747"/>
</svg>
