<svg width="25" height="25" viewBox="0 0 25 25" fill="none" xmlns="http://www.w3.org/2000/svg">
<path d="M16.2165 2.10866L7.83727 2.22558C4.19762 2.27636 2.05811 4.47643 2.10889 8.11608L2.22567 16.4853C2.2766 20.1349 4.47666 22.2744 8.11631 22.2236L16.4855 22.1069C20.1251 22.0561 22.2647 19.856 22.2139 16.2164L22.0969 7.83717C22.0562 4.19739 19.8561 2.05788 16.2165 2.10866ZM12.2536 18.4155C10.4638 18.4405 9.05147 17.5701 8.08929 16.7035L8.09919 17.4134C8.10491 17.8234 7.76969 18.1681 7.35973 18.1738C6.94977 18.1795 6.60506 17.8443 6.59934 17.4343L6.56097 14.6846C6.55525 14.2746 6.89047 13.9299 7.30043 13.9242L9.78019 13.8896C10.1902 13.8839 10.5349 14.2191 10.5406 14.6291C10.5463 15.039 10.2111 15.3837 9.80112 15.3895L8.90121 15.402C9.65146 16.1316 10.8128 16.9355 12.2327 16.9157C14.8524 16.8791 16.9525 14.7196 16.9159 12.0999C16.9102 11.6899 17.2454 11.3452 17.6554 11.3395C18.0653 11.3338 18.41 11.669 18.4158 12.0789C18.4639 15.5286 15.7032 18.3674 12.2536 18.4155ZM18.3814 9.61919C18.3819 9.64918 18.3823 9.67918 18.3826 9.69918C18.3741 9.80931 18.3455 9.90972 18.2968 10.0004C18.248 10.0911 18.1791 10.1721 18.0901 10.2433C18.0208 10.2943 17.9414 10.3354 17.8518 10.3666C17.7821 10.3876 17.7123 10.3986 17.6423 10.3996L15.2125 10.4335C14.8025 10.4392 14.4578 10.104 14.4521 9.69402C14.4464 9.28406 14.7816 8.93935 15.1916 8.93363L16.0215 8.92205C15.2112 8.19328 13.9099 7.39136 12.1201 7.41633C9.50036 7.45288 7.40028 9.6124 7.43684 12.2321C7.44256 12.6421 7.10734 12.9868 6.69738 12.9925C6.28742 12.9983 5.92271 12.6633 5.91699 12.2533C5.86885 8.80368 8.62951 5.96489 12.0792 5.91676C14.229 5.88676 15.8218 6.79462 16.8541 7.67031L16.8435 6.91038C16.8378 6.50042 17.173 6.15571 17.583 6.14999C17.9929 6.14427 18.3376 6.47949 18.3434 6.88945L18.3814 9.61919Z" fill="white"/>
</svg>
