<svg width="20" height="20" viewBox="0 0 20 20" fill="none" xmlns="http://www.w3.org/2000/svg">
<path d="M9.99968 18.9667C9.09135 18.9667 8.19136 18.7 7.48302 18.175L3.89967 15.5C2.94967 14.7917 2.20801 13.3167 2.20801 12.1333V5.94167C2.20801 4.65834 3.14969 3.29167 4.35802 2.84167L8.51635 1.28334C9.34135 0.97501 10.6414 0.97501 11.4664 1.28334L15.633 2.84167C16.8414 3.29167 17.783 4.65834 17.783 5.94167V12.1333C17.783 13.3167 17.0413 14.7917 16.0913 15.5L12.508 18.175C11.808 18.7 10.908 18.9667 9.99968 18.9667ZM8.95801 2.45001L4.79969 4.00833C4.08302 4.275 3.45801 5.17501 3.45801 5.94167V12.1333C3.45801 12.925 4.01635 14.0333 4.64135 14.5L8.22468 17.175C9.18301 17.8917 10.808 17.8917 11.7663 17.175L15.3497 14.5C15.983 14.025 16.533 12.9167 16.533 12.1333V5.94167C16.533 5.18334 15.908 4.28333 15.1914 4.00833L11.033 2.45001C10.483 2.24167 9.51635 2.24167 8.95801 2.45001Z" fill="#7A1AD6"/>
<path d="M10.0001 9.72504C9.98342 9.72504 9.96675 9.72504 9.94175 9.72504C8.73341 9.6917 7.8501 8.7667 7.8501 7.6417C7.8501 6.4917 8.79175 5.55003 9.94175 5.55003C11.0917 5.55003 12.0334 6.4917 12.0334 7.6417C12.0251 8.77504 11.1417 9.69169 10.0167 9.73335C10.0084 9.72502 10.0084 9.72504 10.0001 9.72504ZM9.94175 6.80003C9.47508 6.80003 9.1001 7.17504 9.1001 7.6417C9.1001 8.10004 9.45843 8.46669 9.90843 8.48335C9.90843 8.48335 9.95009 8.48335 10.0001 8.48335C10.4418 8.45835 10.7834 8.0917 10.7834 7.6417C10.7918 7.17504 10.4084 6.80003 9.94175 6.80003Z" fill="#7A1AD6"/>
<path d="M10 14.4584C9.28334 14.4584 8.55835 14.2667 8.00002 13.8917C7.44168 13.525 7.125 12.9834 7.125 12.4084C7.125 11.8334 7.44168 11.2917 8.00002 10.9167C9.12502 10.1667 10.8833 10.175 12 10.9167C12.5583 11.2834 12.875 11.825 12.875 12.4C12.875 12.975 12.5583 13.5167 12 13.8917C11.4417 14.2667 10.7167 14.4584 10 14.4584ZM8.69167 11.95C8.48334 12.0833 8.36667 12.25 8.375 12.4C8.375 12.55 8.49167 12.7167 8.69167 12.85C9.39167 13.3167 10.6083 13.3167 11.3083 12.85C11.5167 12.7167 11.6333 12.55 11.6333 12.4C11.6333 12.25 11.5167 12.0833 11.3167 11.95C10.6167 11.4917 9.39167 11.4917 8.69167 11.95Z" fill="#7A1AD6"/>
</svg>
