<svg width="21" height="20" viewBox="0 0 21 20" fill="none" xmlns="http://www.w3.org/2000/svg">
<path d="M18.0001 5.60833C17.9834 5.60833 17.9584 5.60833 17.9334 5.60833C13.5251 5.16667 9.12505 5 4.76672 5.44167L3.06672 5.60833C2.71672 5.64167 2.40839 5.39167 2.37505 5.04167C2.34172 4.69167 2.59172 4.39167 2.93339 4.35833L4.63339 4.19167C9.06672 3.74167 13.5584 3.91667 18.0584 4.35833C18.4001 4.39167 18.6501 4.7 18.6167 5.04167C18.5917 5.36667 18.3167 5.60833 18.0001 5.60833Z" fill="#7A1AD6"/>
<path d="M7.58314 4.76667C7.5498 4.76667 7.51647 4.76667 7.4748 4.75834C7.14147 4.70001 6.90814 4.37501 6.96647 4.04167L7.1498 2.95001C7.28314 2.15001 7.46647 1.04167 9.40814 1.04167H11.5915C13.5415 1.04167 13.7248 2.19167 13.8498 2.95834L14.0331 4.04167C14.0915 4.38334 13.8581 4.70834 13.5248 4.75834C13.1831 4.81667 12.8581 4.58334 12.8081 4.25001L12.6248 3.16667C12.5081 2.44167 12.4831 2.30001 11.5998 2.30001H9.41647C8.53314 2.30001 8.51647 2.41667 8.39147 3.15834L8.1998 4.24167C8.1498 4.55001 7.88314 4.76667 7.58314 4.76667Z" fill="#7A1AD6"/>
<path d="M13.175 18.9583H7.825C4.91666 18.9583 4.8 17.35 4.70833 16.05L4.16666 7.65833C4.14166 7.31667 4.40833 7.01667 4.75 6.99167C5.1 6.975 5.39166 7.23334 5.41666 7.575L5.95833 15.9667C6.05 17.2333 6.08333 17.7083 7.825 17.7083H13.175C14.925 17.7083 14.9583 17.2333 15.0417 15.9667L15.5833 7.575C15.6083 7.23334 15.9083 6.975 16.25 6.99167C16.5917 7.01667 16.8583 7.30833 16.8333 7.65833L16.2917 16.05C16.2 17.35 16.0833 18.9583 13.175 18.9583Z" fill="#7A1AD6"/>
<path d="M11.8834 14.375H9.1084C8.76673 14.375 8.4834 14.0917 8.4834 13.75C8.4834 13.4083 8.76673 13.125 9.1084 13.125H11.8834C12.2251 13.125 12.5084 13.4083 12.5084 13.75C12.5084 14.0917 12.2251 14.375 11.8834 14.375Z" fill="#7A1AD6"/>
<path d="M12.5832 11.0417H8.4165C8.07484 11.0417 7.7915 10.7583 7.7915 10.4167C7.7915 10.075 8.07484 9.79167 8.4165 9.79167H12.5832C12.9248 9.79167 13.2082 10.075 13.2082 10.4167C13.2082 10.7583 12.9248 11.0417 12.5832 11.0417Z" fill="#7A1AD6"/>
</svg>
